<svg width="150" height="32" viewBox="0 0 150 32" fill="none" xmlns="http://www.w3.org/2000/svg">
<path d="M32.7021 24.9801H29.0751V11.6711H32.7021V24.9801Z" fill="black"/>
<path d="M47.8244 16.878V24.9511H44.1974V17.3753C44.1974 15.5325 43.2614 14.5087 41.5941 14.5087C39.7806 14.5087 38.6691 16.0298 38.6691 17.8433V24.9511H35.042V11.6422H38.552V13.3972C39.1078 12.432 40.5118 11.2912 42.6764 11.2912C46.0987 11.3204 47.8244 13.602 47.8244 16.878Z" fill="black"/>
<path d="M57.9452 11.6416V14.6836H54.6106V20.4752C54.6106 21.3527 55.0201 21.9085 56.2779 21.9085H57.9744V24.9798H56.0439C52.9726 24.9798 50.9836 24.424 50.9836 21.0895V14.6836H48.6143V11.6416H50.9836V7.89754H54.6106V11.6416H57.9452Z" fill="black"/>
<path d="M65.6376 22.2894C67.0124 22.2894 67.8021 21.7921 68.1239 20.9439H71.8094C71.2537 23.5472 69.2061 25.3022 65.5791 25.3022C61.3963 25.3022 58.793 22.4942 58.793 18.2528C58.793 14.0115 61.3963 11.3205 65.4913 11.3205C69.5864 11.3205 71.9264 14.0115 71.9264 18.1358V19.2181H62.42C62.654 21.1779 63.7071 22.2894 65.6376 22.2894ZM62.42 16.8196H68.2701C68.0946 14.9475 66.9246 14.0408 65.4621 14.0408C63.7655 14.0408 62.6833 14.9768 62.42 16.8196Z" fill="black"/>
<path d="M82.3102 15.0349H81.1402C78.3614 15.0349 77.0744 16.4974 77.0744 19.1592V24.98H73.4766V11.6711H76.9866V13.7771C77.3961 13.0458 78.6831 11.6711 81.1694 11.6711H82.3394V15.0349H82.3102Z" fill="black"/>
<path d="M103.517 16.7318V24.9804H99.8903V17.1121C99.8903 15.4155 99.2468 14.538 97.872 14.538C96.1755 14.538 95.415 15.8836 95.415 17.6678V24.9804H91.7879V17.1413C91.7879 15.4155 91.1444 14.538 89.7696 14.538C88.0731 14.538 87.3126 16.0883 87.3126 17.8726V24.9804H83.6855V11.6715H87.1956V13.3973C87.8391 12.2565 89.1846 11.3205 91.1444 11.3205C93.3382 11.3205 94.2157 12.315 94.8592 13.3095C95.649 11.847 97.1115 11.3205 98.7495 11.3205C102.113 11.3205 103.517 13.4558 103.517 16.7318Z" fill="black"/>
<path d="M109.251 24.98H105.624V11.6711H109.251V24.98Z" fill="black"/>
<path d="M124.373 11.6423V24.3077C124.373 28.081 121.623 30.4211 117.675 30.4211C114.048 30.4211 111.532 28.8708 111.269 25.9457H114.867C115.042 27.028 115.978 27.5838 117.616 27.5838C119.898 27.5838 120.717 26.0335 120.717 24.0152V22.5527C120.219 23.518 119.137 24.7757 116.768 24.7757C113.141 24.7757 110.771 21.9677 110.771 18.0774C110.771 14.1578 113.17 11.3498 116.797 11.3498C119.254 11.3498 120.307 12.7245 120.804 13.5143V11.7008H124.373V11.6423ZM120.892 18.0481C120.892 16.0006 119.781 14.3333 117.616 14.3333C115.598 14.3333 114.428 15.9128 114.428 18.0481C114.428 20.1834 115.598 21.7337 117.616 21.7337C119.781 21.7337 120.892 20.0664 120.892 18.0481Z" fill="black"/>
<path d="M135.517 15.0349H134.347C131.569 15.0349 130.282 16.4975 130.282 19.1593V24.9801H126.654V11.6711H130.165V13.7772C130.574 13.0459 131.861 11.6711 134.347 11.6711H135.517V15.0349Z" fill="black"/>
<path d="M149.909 18.3113C149.909 22.4941 147.247 25.3022 143.006 25.3022C138.823 25.3022 136.103 22.4649 136.103 18.3113C136.103 14.1285 138.794 11.3205 143.006 11.3205C147.247 11.3205 149.909 14.1285 149.909 18.3113ZM146.282 18.3113C146.282 16.1761 145.287 14.3333 143.006 14.3333C140.753 14.3333 139.73 16.1761 139.73 18.3113C139.73 20.4759 140.753 22.2894 143.006 22.2894C145.287 22.2894 146.282 20.4759 146.282 18.3113Z" fill="black"/>
<path d="M30.8886 32.0002C32.2617 32.0002 33.3749 30.887 33.3749 29.5139C33.3749 28.1407 32.2617 27.0276 30.8886 27.0276C29.5154 27.0276 28.4023 28.1407 28.4023 29.5139C28.4023 30.887 29.5154 32.0002 30.8886 32.0002Z" fill="black"/>
<path d="M107.437 9.62313C108.811 9.62313 109.924 8.50998 109.924 7.13684C109.924 5.7637 108.811 4.65055 107.437 4.65055C106.064 4.65055 104.951 5.7637 104.951 7.13684C104.951 8.50998 106.064 9.62313 107.437 9.62313Z" fill="black"/>
<path d="M24.044 11.6709L17.3164 0L10.5888 11.6709H15.6783V19.3638C15.6783 22.1719 13.3968 24.4534 10.5888 24.4534C7.78072 24.4534 5.49919 22.1719 5.49919 19.3638V10.6179H1.87213V19.3638C1.87213 24.1901 5.79169 28.0804 10.5888 28.0804C15.3858 28.0804 19.3054 24.1609 19.3054 19.3638V11.6709H24.044Z" fill="black"/>
<path d="M6.69836 6.69852C7.45887 5.93801 7.86838 5.002 7.86838 3.91973C7.86838 2.83746 7.48812 1.90145 6.69836 1.14094C5.93785 0.380425 5.00183 0.000162125 3.94881 0.000162125C2.86654 0.000162125 1.93053 0.380425 1.17002 1.14094C0.409506 1.90145 0 2.83746 0 3.91973C0 4.97275 0.380256 5.90876 1.17002 6.69852C1.93053 7.45904 2.8958 7.86854 3.97806 7.86854C5.00183 7.83929 5.93785 7.45904 6.69836 6.69852Z" fill="black"/>
</svg>
